<mxfile host="app.diagrams.net" modified="2023-07-21T05:09:26.982Z" agent="Mozilla/5.0 (Windows NT 10.0; Win64; x64) AppleWebKit/537.36 (KHTML, like Gecko) Chrome/115.0.0.0 Safari/537.36" etag="C68nUo98POXYA0T6UA4C" version="21.6.3" type="github">
  <diagram name="Page-1" id="RutwlBK_jGAgy6NSzeS8">
    <mxGraphModel dx="1128" dy="523" grid="1" gridSize="10" guides="1" tooltips="1" connect="1" arrows="1" fold="1" page="1" pageScale="1" pageWidth="850" pageHeight="1100" math="0" shadow="0">
      <root>
        <mxCell id="0" />
        <mxCell id="1" parent="0" />
        <mxCell id="4nlAgdOmav39TMAHEWrd-1" value="" style="group" vertex="1" connectable="0" parent="1">
          <mxGeometry y="80" width="850" height="390" as="geometry" />
        </mxCell>
        <mxCell id="FnQt-bcbcUNVTOLYjDGp-2" value="Winter Rye&lt;br&gt;Train Set" style="shape=cylinder3;whiteSpace=wrap;html=1;boundedLbl=1;backgroundOutline=1;size=15;fillColor=#E6FFDB;" parent="4nlAgdOmav39TMAHEWrd-1" vertex="1">
          <mxGeometry y="30.000000000000004" width="103.03030303030302" height="180.00000000000003" as="geometry" />
        </mxCell>
        <mxCell id="FnQt-bcbcUNVTOLYjDGp-4" value="Winter Wheat&lt;br&gt;Train Set" style="shape=cylinder3;whiteSpace=wrap;html=1;boundedLbl=1;backgroundOutline=1;size=15;fillColor=#DBF8FF;" parent="4nlAgdOmav39TMAHEWrd-1" vertex="1">
          <mxGeometry y="210.00000000000003" width="103.03030303030302" height="180.00000000000003" as="geometry" />
        </mxCell>
        <mxCell id="FnQt-bcbcUNVTOLYjDGp-6" value="Augmenter" style="ellipse;whiteSpace=wrap;html=1;aspect=fixed;" parent="4nlAgdOmav39TMAHEWrd-1" vertex="1">
          <mxGeometry x="115.9090909090909" y="150" width="103.03030303030302" height="103.03030303030302" as="geometry" />
        </mxCell>
        <mxCell id="FnQt-bcbcUNVTOLYjDGp-1" style="edgeStyle=orthogonalEdgeStyle;rounded=0;orthogonalLoop=1;jettySize=auto;html=1;exitX=1;exitY=0;exitDx=0;exitDy=15;exitPerimeter=0;entryX=0.5;entryY=0;entryDx=0;entryDy=0;" parent="4nlAgdOmav39TMAHEWrd-1" source="FnQt-bcbcUNVTOLYjDGp-2" target="FnQt-bcbcUNVTOLYjDGp-6" edge="1">
          <mxGeometry relative="1" as="geometry" />
        </mxCell>
        <mxCell id="FnQt-bcbcUNVTOLYjDGp-3" style="edgeStyle=orthogonalEdgeStyle;rounded=0;orthogonalLoop=1;jettySize=auto;html=1;exitX=1;exitY=1;exitDx=0;exitDy=-15;exitPerimeter=0;entryX=0.5;entryY=1;entryDx=0;entryDy=0;" parent="4nlAgdOmav39TMAHEWrd-1" source="FnQt-bcbcUNVTOLYjDGp-4" target="FnQt-bcbcUNVTOLYjDGp-6" edge="1">
          <mxGeometry relative="1" as="geometry" />
        </mxCell>
        <mxCell id="FnQt-bcbcUNVTOLYjDGp-8" value="A" style="rounded=0;whiteSpace=wrap;html=1;" parent="4nlAgdOmav39TMAHEWrd-1" vertex="1">
          <mxGeometry x="347.72727272727275" y="30.000000000000004" width="51.51515151515151" height="60.00000000000001" as="geometry" />
        </mxCell>
        <mxCell id="FnQt-bcbcUNVTOLYjDGp-10" value="B" style="rounded=0;whiteSpace=wrap;html=1;" parent="4nlAgdOmav39TMAHEWrd-1" vertex="1">
          <mxGeometry x="347.72727272727275" y="105.00000000000001" width="51.51515151515151" height="60.00000000000001" as="geometry" />
        </mxCell>
        <mxCell id="FnQt-bcbcUNVTOLYjDGp-12" value="C" style="rounded=0;whiteSpace=wrap;html=1;" parent="4nlAgdOmav39TMAHEWrd-1" vertex="1">
          <mxGeometry x="347.72727272727275" y="180.00000000000003" width="51.51515151515151" height="60.00000000000001" as="geometry" />
        </mxCell>
        <mxCell id="FnQt-bcbcUNVTOLYjDGp-5" style="edgeStyle=orthogonalEdgeStyle;rounded=0;orthogonalLoop=1;jettySize=auto;html=1;entryX=0;entryY=0.5;entryDx=0;entryDy=0;" parent="4nlAgdOmav39TMAHEWrd-1" source="FnQt-bcbcUNVTOLYjDGp-6" target="FnQt-bcbcUNVTOLYjDGp-12" edge="1">
          <mxGeometry relative="1" as="geometry">
            <mxPoint x="373.4848484848485" y="210.00000000000003" as="targetPoint" />
          </mxGeometry>
        </mxCell>
        <mxCell id="FnQt-bcbcUNVTOLYjDGp-14" value="D" style="rounded=0;whiteSpace=wrap;html=1;" parent="4nlAgdOmav39TMAHEWrd-1" vertex="1">
          <mxGeometry x="347.72727272727275" y="255.00000000000003" width="51.51515151515151" height="60.00000000000001" as="geometry" />
        </mxCell>
        <mxCell id="FnQt-bcbcUNVTOLYjDGp-16" value="E" style="rounded=0;whiteSpace=wrap;html=1;" parent="4nlAgdOmav39TMAHEWrd-1" vertex="1">
          <mxGeometry x="347.72727272727275" y="330.00000000000006" width="51.51515151515151" height="60.00000000000001" as="geometry" />
        </mxCell>
        <mxCell id="FnQt-bcbcUNVTOLYjDGp-17" value="" style="rounded=0;whiteSpace=wrap;html=1;fillColor=#CCCCFF;" parent="4nlAgdOmav39TMAHEWrd-1" vertex="1">
          <mxGeometry x="231.8181818181818" y="165.00000000000003" width="51.51515151515151" height="60.00000000000001" as="geometry" />
        </mxCell>
        <mxCell id="FnQt-bcbcUNVTOLYjDGp-18" value="" style="rounded=0;whiteSpace=wrap;html=1;fillColor=#FFFF00;" parent="4nlAgdOmav39TMAHEWrd-1" vertex="1">
          <mxGeometry x="244.6969696969697" y="180.00000000000003" width="51.51515151515151" height="60.00000000000001" as="geometry" />
        </mxCell>
        <mxCell id="FnQt-bcbcUNVTOLYjDGp-19" style="edgeStyle=orthogonalEdgeStyle;rounded=0;orthogonalLoop=1;jettySize=auto;html=1;exitX=0.25;exitY=0;exitDx=0;exitDy=0;entryX=0;entryY=0.5;entryDx=0;entryDy=0;" parent="4nlAgdOmav39TMAHEWrd-1" source="FnQt-bcbcUNVTOLYjDGp-23" target="FnQt-bcbcUNVTOLYjDGp-8" edge="1">
          <mxGeometry relative="1" as="geometry">
            <Array as="points">
              <mxPoint x="321.969696969697" y="210.00000000000003" />
              <mxPoint x="321.969696969697" y="60.00000000000001" />
            </Array>
          </mxGeometry>
        </mxCell>
        <mxCell id="FnQt-bcbcUNVTOLYjDGp-20" style="edgeStyle=orthogonalEdgeStyle;rounded=0;orthogonalLoop=1;jettySize=auto;html=1;exitX=0.25;exitY=0;exitDx=0;exitDy=0;entryX=0;entryY=0.5;entryDx=0;entryDy=0;" parent="4nlAgdOmav39TMAHEWrd-1" source="FnQt-bcbcUNVTOLYjDGp-23" target="FnQt-bcbcUNVTOLYjDGp-10" edge="1">
          <mxGeometry relative="1" as="geometry">
            <Array as="points">
              <mxPoint x="321.969696969697" y="210.00000000000003" />
              <mxPoint x="321.969696969697" y="135" />
            </Array>
          </mxGeometry>
        </mxCell>
        <mxCell id="FnQt-bcbcUNVTOLYjDGp-21" style="edgeStyle=orthogonalEdgeStyle;rounded=0;orthogonalLoop=1;jettySize=auto;html=1;exitX=0.25;exitY=0;exitDx=0;exitDy=0;entryX=0;entryY=0.5;entryDx=0;entryDy=0;" parent="4nlAgdOmav39TMAHEWrd-1" source="FnQt-bcbcUNVTOLYjDGp-23" target="FnQt-bcbcUNVTOLYjDGp-14" edge="1">
          <mxGeometry relative="1" as="geometry">
            <Array as="points">
              <mxPoint x="321.969696969697" y="210.00000000000003" />
              <mxPoint x="321.969696969697" y="285.00000000000006" />
            </Array>
          </mxGeometry>
        </mxCell>
        <mxCell id="FnQt-bcbcUNVTOLYjDGp-22" style="edgeStyle=orthogonalEdgeStyle;rounded=0;orthogonalLoop=1;jettySize=auto;html=1;exitX=0.25;exitY=0;exitDx=0;exitDy=0;entryX=0;entryY=0.5;entryDx=0;entryDy=0;" parent="4nlAgdOmav39TMAHEWrd-1" source="FnQt-bcbcUNVTOLYjDGp-23" target="FnQt-bcbcUNVTOLYjDGp-16" edge="1">
          <mxGeometry relative="1" as="geometry">
            <Array as="points">
              <mxPoint x="321.969696969697" y="210.00000000000003" />
              <mxPoint x="321.969696969697" y="360.00000000000006" />
            </Array>
          </mxGeometry>
        </mxCell>
        <mxCell id="FnQt-bcbcUNVTOLYjDGp-23" value="" style="rounded=0;whiteSpace=wrap;html=1;strokeColor=#000000;fillColor=#FF99CC;direction=south;" parent="4nlAgdOmav39TMAHEWrd-1" vertex="1">
          <mxGeometry x="257.57575757575756" y="195" width="51.51515151515151" height="60.00000000000001" as="geometry" />
        </mxCell>
        <mxCell id="FnQt-bcbcUNVTOLYjDGp-24" value="&lt;font style=&quot;font-size: 10px;&quot;&gt;*Augmented Images&amp;nbsp;&lt;/font&gt;" style="text;html=1;strokeColor=none;fillColor=none;align=center;verticalAlign=middle;whiteSpace=wrap;rounded=0;" parent="4nlAgdOmav39TMAHEWrd-1" vertex="1">
          <mxGeometry x="189.9621212121212" y="127.50000000000001" width="135.22727272727272" height="22.500000000000004" as="geometry" />
        </mxCell>
        <mxCell id="FnQt-bcbcUNVTOLYjDGp-25" value="&lt;font style=&quot;font-size: 14px;&quot;&gt;**&lt;/font&gt;" style="text;html=1;strokeColor=none;fillColor=none;align=center;verticalAlign=middle;whiteSpace=wrap;rounded=0;" parent="4nlAgdOmav39TMAHEWrd-1" vertex="1">
          <mxGeometry x="296.2121212121212" y="45.00000000000001" width="38.63636363636363" height="15.000000000000002" as="geometry" />
        </mxCell>
        <mxCell id="FnQt-bcbcUNVTOLYjDGp-26" value="Baseline Predictions" style="text;html=1;strokeColor=none;fillColor=none;align=center;verticalAlign=middle;whiteSpace=wrap;rounded=0;" parent="4nlAgdOmav39TMAHEWrd-1" vertex="1">
          <mxGeometry x="399.2424242424242" width="154.54545454545453" height="45.00000000000001" as="geometry" />
        </mxCell>
        <mxCell id="FnQt-bcbcUNVTOLYjDGp-29" value="" style="shape=trapezoid;perimeter=trapezoidPerimeter;whiteSpace=wrap;html=1;fixedSize=1;rotation=90;fillColor=#FFFF99;" parent="4nlAgdOmav39TMAHEWrd-1" vertex="1">
          <mxGeometry x="437.8787878787878" y="165.00000000000003" width="309.09090909090907" height="90.00000000000001" as="geometry" />
        </mxCell>
        <mxCell id="FnQt-bcbcUNVTOLYjDGp-7" style="edgeStyle=orthogonalEdgeStyle;rounded=0;orthogonalLoop=1;jettySize=auto;html=1;exitX=1;exitY=0.5;exitDx=0;exitDy=0;entryX=0.08;entryY=1.003;entryDx=0;entryDy=0;entryPerimeter=0;" parent="4nlAgdOmav39TMAHEWrd-1" source="FnQt-bcbcUNVTOLYjDGp-8" target="FnQt-bcbcUNVTOLYjDGp-29" edge="1">
          <mxGeometry relative="1" as="geometry" />
        </mxCell>
        <mxCell id="FnQt-bcbcUNVTOLYjDGp-9" style="edgeStyle=orthogonalEdgeStyle;rounded=0;orthogonalLoop=1;jettySize=auto;html=1;exitX=1;exitY=0.5;exitDx=0;exitDy=0;entryX=0.29;entryY=1.003;entryDx=0;entryDy=0;entryPerimeter=0;" parent="4nlAgdOmav39TMAHEWrd-1" source="FnQt-bcbcUNVTOLYjDGp-10" target="FnQt-bcbcUNVTOLYjDGp-29" edge="1">
          <mxGeometry relative="1" as="geometry" />
        </mxCell>
        <mxCell id="FnQt-bcbcUNVTOLYjDGp-11" style="edgeStyle=orthogonalEdgeStyle;rounded=0;orthogonalLoop=1;jettySize=auto;html=1;entryX=0.5;entryY=1;entryDx=0;entryDy=0;" parent="4nlAgdOmav39TMAHEWrd-1" source="FnQt-bcbcUNVTOLYjDGp-12" target="FnQt-bcbcUNVTOLYjDGp-29" edge="1">
          <mxGeometry relative="1" as="geometry" />
        </mxCell>
        <mxCell id="FnQt-bcbcUNVTOLYjDGp-13" style="edgeStyle=orthogonalEdgeStyle;rounded=0;orthogonalLoop=1;jettySize=auto;html=1;entryX=0.71;entryY=1.004;entryDx=0;entryDy=0;entryPerimeter=0;" parent="4nlAgdOmav39TMAHEWrd-1" source="FnQt-bcbcUNVTOLYjDGp-14" target="FnQt-bcbcUNVTOLYjDGp-29" edge="1">
          <mxGeometry relative="1" as="geometry" />
        </mxCell>
        <mxCell id="FnQt-bcbcUNVTOLYjDGp-15" style="edgeStyle=orthogonalEdgeStyle;rounded=0;orthogonalLoop=1;jettySize=auto;html=1;exitX=1;exitY=0.5;exitDx=0;exitDy=0;entryX=0.915;entryY=1.005;entryDx=0;entryDy=0;entryPerimeter=0;" parent="4nlAgdOmav39TMAHEWrd-1" source="FnQt-bcbcUNVTOLYjDGp-16" target="FnQt-bcbcUNVTOLYjDGp-29" edge="1">
          <mxGeometry relative="1" as="geometry" />
        </mxCell>
        <mxCell id="FnQt-bcbcUNVTOLYjDGp-30" value="&lt;font style=&quot;font-size: 18px;&quot;&gt;Ensemble Learning Module&lt;/font&gt;" style="text;html=1;strokeColor=none;fillColor=none;align=center;verticalAlign=middle;whiteSpace=wrap;rounded=0;rotation=-90;" parent="4nlAgdOmav39TMAHEWrd-1" vertex="1">
          <mxGeometry x="470.07575757575756" y="187.5" width="244.6969696969697" height="45.00000000000001" as="geometry" />
        </mxCell>
        <mxCell id="FnQt-bcbcUNVTOLYjDGp-31" value="Final Winter Rye&lt;br&gt;Predictions" style="shape=delay;whiteSpace=wrap;html=1;fillColor=#99FF99;" parent="4nlAgdOmav39TMAHEWrd-1" vertex="1">
          <mxGeometry x="682.5757575757575" y="90.00000000000001" width="167.42424242424244" height="60.00000000000001" as="geometry" />
        </mxCell>
        <mxCell id="FnQt-bcbcUNVTOLYjDGp-27" style="edgeStyle=orthogonalEdgeStyle;rounded=0;orthogonalLoop=1;jettySize=auto;html=1;exitX=0.25;exitY=0;exitDx=0;exitDy=0;entryX=0;entryY=0.5;entryDx=0;entryDy=0;" parent="4nlAgdOmav39TMAHEWrd-1" source="FnQt-bcbcUNVTOLYjDGp-29" target="FnQt-bcbcUNVTOLYjDGp-31" edge="1">
          <mxGeometry relative="1" as="geometry" />
        </mxCell>
        <mxCell id="FnQt-bcbcUNVTOLYjDGp-32" value="Final Winter Wheat Predictions&amp;nbsp;" style="shape=delay;whiteSpace=wrap;html=1;fillColor=#33FFFF;" parent="4nlAgdOmav39TMAHEWrd-1" vertex="1">
          <mxGeometry x="683.8636363636364" y="270" width="166.13636363636363" height="60.00000000000001" as="geometry" />
        </mxCell>
        <mxCell id="FnQt-bcbcUNVTOLYjDGp-28" style="edgeStyle=orthogonalEdgeStyle;rounded=0;orthogonalLoop=1;jettySize=auto;html=1;exitX=0.75;exitY=0;exitDx=0;exitDy=0;entryX=0;entryY=0.5;entryDx=0;entryDy=0;" parent="4nlAgdOmav39TMAHEWrd-1" source="FnQt-bcbcUNVTOLYjDGp-29" target="FnQt-bcbcUNVTOLYjDGp-32" edge="1">
          <mxGeometry relative="1" as="geometry" />
        </mxCell>
      </root>
    </mxGraphModel>
  </diagram>
</mxfile>
